<svg width="13" height="11" viewBox="0 0 13 11" fill="none" xmlns="http://www.w3.org/2000/svg">
<path d="M2.2274 0.848155H2.7764V0H3.6914V0.848155H9.7304V0H10.6454V0.848155H11.1944C11.9512 0.848155 12.5669 1.41888 12.5669 2.12039V9.58415C12.5669 10.2857 11.9512 10.8564 11.1944 10.8564H2.2274C1.47061 10.8564 0.854906 10.2857 0.854906 9.58415V2.12039C0.854906 1.41888 1.47061 0.848155 2.2274 0.848155ZM1.76991 9.58415C1.76991 9.81799 1.97514 10.0082 2.2274 10.0082H11.1944C11.4467 10.0082 11.6519 9.81799 11.6519 9.58415V3.98633H1.76991V9.58415ZM1.76991 3.13817H11.6519V2.12039C11.6519 1.88655 11.4467 1.69631 11.1944 1.69631H10.6454V2.54447H9.7304V1.69631H3.6914V2.54447H2.7764V1.69631H2.2274C1.97514 1.69631 1.76991 1.88655 1.76991 2.12039V3.13817Z" fill="#B1B1B1"/>
<path d="M9.91167 4.87695H10.8267V5.72504H9.91167V4.87695Z" fill="#B1B1B1"/>
<path d="M8.08305 4.87695H8.99805V5.72504H8.08305V4.87695Z" fill="#B1B1B1"/>
<path d="M6.25395 4.87695H7.16895V5.72504H6.25395V4.87695Z" fill="#B1B1B1"/>
<path d="M4.42339 4.87695H5.33838V5.72504H4.42339V4.87695Z" fill="#B1B1B1"/>
<path d="M2.59282 4.87695H3.50781V5.72504H2.59282V4.87695Z" fill="#B1B1B1"/>
<path d="M9.91167 6.57324H10.8267V7.42139H9.91167V6.57324Z" fill="#B1B1B1"/>
<path d="M8.08305 6.57324H8.99805V7.42139H8.08305V6.57324Z" fill="#B1B1B1"/>
<path d="M6.25395 6.57324H7.16895V7.42139H6.25395V6.57324Z" fill="#B1B1B1"/>
<path d="M4.42339 6.57324H5.33838V7.42139H4.42339V6.57324Z" fill="#B1B1B1"/>
<path d="M9.91167 8.26953H10.8267V9.11774H9.91167V8.26953Z" fill="#B1B1B1"/>
<path d="M8.08305 8.26953H8.99805V9.11774H8.08305V8.26953Z" fill="#B1B1B1"/>
<path d="M6.25395 8.26953H7.16895V9.11774H6.25395V8.26953Z" fill="#B1B1B1"/>
<path d="M4.42339 8.26953H5.33838V9.11774H4.42339V8.26953Z" fill="#B1B1B1"/>
<path d="M2.59282 6.57324H3.50781V7.42139H2.59282V6.57324Z" fill="#B1B1B1"/>
</svg>
