<svg width="32" height="30" viewBox="0 0 32 30" fill="none" xmlns="http://www.w3.org/2000/svg">
<path d="M10.5285 11.8169H8.42209C8.15318 11.8169 7.88428 12.0343 7.88428 12.3387V21.5564C7.88428 21.8607 8.10837 22.0781 8.42209 22.0781H10.5285C10.8422 22.0781 11.0663 21.8607 11.0663 21.5564V12.2952C11.0663 12.0343 10.7974 11.8169 10.5285 11.8169Z" fill="#BDBDBD"/>
<path d="M18.6845 11.8169L19.2223 10.3386C19.6256 9.33855 19.3567 7.77327 18.2811 7.20803C17.9226 7.03411 17.4296 6.94715 17.071 7.03411C16.8469 7.07759 16.6677 7.20803 16.5332 7.42543C16.3988 7.64283 16.4436 7.90371 16.3988 8.16459C16.2643 8.77331 15.9506 9.38203 15.5024 9.81683C14.6957 10.5995 12.1411 12.817 12.1411 12.817V21.0347H20.9701C22.1802 21.0347 22.9421 19.7303 22.3595 18.7302C23.0766 18.2954 23.3007 17.3823 22.8973 16.6867C23.6144 16.2519 23.8385 15.3388 23.4351 14.6431C24.6452 13.904 24.2418 12.0343 22.8077 11.8169C22.6732 11.7734 18.6845 11.8169 18.6845 11.8169Z" fill="#BDBDBD"/>
</svg>
