<svg width="31" height="23" viewBox="0 0 31 23" fill="none" xmlns="http://www.w3.org/2000/svg">
<path d="M15.0224 22.5981H16.8473C16.8473 22.5981 17.4027 22.5151 17.72 22.1003C17.9581 21.7685 17.9581 21.1048 17.9581 21.1048C17.9581 21.1048 17.9581 17.9523 19.0689 17.5375C20.1797 17.1227 21.6872 20.5241 23.1947 21.8514C24.3849 22.8469 25.2577 22.5981 25.2577 22.5981L29.3835 22.5151C29.3835 22.5151 31.5258 22.3492 30.4943 20.1922C30.415 20.0263 29.9389 18.616 27.3999 15.7124C24.7816 12.7259 25.1783 13.1407 28.2727 7.91418C30.177 4.76171 30.8911 2.77068 30.653 1.94108C30.415 1.11148 29.0662 1.36036 29.0662 1.36036H24.4642C24.4642 1.36036 24.1469 1.2774 23.8295 1.52628C23.5915 1.6922 23.4328 2.18996 23.4328 2.18996C23.4328 2.18996 22.7187 4.67875 21.6872 6.75275C19.6243 11.1496 18.8308 11.3985 18.4341 11.1496C17.6407 10.4859 17.8787 8.57786 17.8787 7.16755C17.8787 2.85364 18.3548 1.11148 16.8473 0.613722C16.4505 0.613722 16.0538 0.530762 14.7843 0.530762C13.1181 0.530762 11.7693 0.530762 10.9758 1.02852C10.4204 1.36036 9.94438 2.107 10.2618 2.107C10.5791 2.18996 11.2932 2.35588 11.6106 2.9366C12.0867 3.76619 12.0867 5.59131 12.0867 5.59131C12.0867 5.59131 12.3247 10.6519 11.4519 11.2326C10.8172 11.6474 9.94438 10.8178 8.11948 6.75275C7.16736 4.76171 6.45327 2.5218 6.45327 2.5218C6.45327 2.5218 6.29458 2.107 6.05655 1.85812C5.73918 1.60924 5.34246 1.52628 5.34246 1.52628H0.978569C0.978569 1.52628 0.343822 1.52628 0.105791 1.94108C-0.132239 2.27292 0.105791 2.9366 0.105791 2.9366C0.105791 2.9366 3.51756 13.1406 7.48473 18.2842C10.9758 22.9299 15.0224 22.5981 15.0224 22.5981Z" fill="#4A76A8"/>
</svg>
