<svg width="15" height="15" viewBox="0 0 15 15" fill="none" xmlns="http://www.w3.org/2000/svg">
<path d="M0.639446 0.63953C0.995426 0.28355 1.56296 0.284152 1.9197 0.640887L14.3592 13.0804C14.7159 13.4371 14.7165 14.0047 14.3606 14.3606C14.0046 14.7166 13.437 14.716 13.0803 14.3593L0.640804 1.91978C0.290675 1.56965 0.283466 0.99551 0.639446 0.63953Z" fill="#BCBCBC"/>
<path d="M14.3392 0.654118C14.6959 1.01085 14.6965 1.57839 14.3405 1.93437L1.92738 14.3475C1.57139 14.7035 1.00386 14.7029 0.647125 14.3462C0.290389 13.9894 0.289786 13.4219 0.645767 13.0659L13.0589 0.65276C13.4149 0.29678 13.989 0.303988 14.3392 0.654118Z" fill="#BCBCBC"/>
</svg>
