<svg width="26" height="26" viewBox="0 0 26 26" fill="none" xmlns="http://www.w3.org/2000/svg">
<path d="M25.2512 7.40995C25.1793 6.04307 24.9635 5.17977 24.6757 4.31648C24.3879 3.45318 23.8843 2.73377 23.2369 2.0863C22.5894 1.43883 21.87 0.935236 21.0067 0.647471C20.2153 0.359706 19.2801 0.143883 17.9132 0.0719413C16.5463 0 16.1147 0 12.6615 0C9.20832 0 8.77667 0 7.48173 0.0719413C6.11484 0.143883 5.17961 0.359706 4.38825 0.647471C3.52496 1.00718 2.80555 1.43883 2.15807 2.0863C1.5106 2.73377 1.00701 3.52512 0.719249 4.38842C0.431484 5.17977 0.21566 6.11501 0.143719 7.48189C0.0717773 8.84878 0.0717773 9.28042 0.0717773 12.6617C0.0717773 16.1148 0.0717773 16.5465 0.143719 17.8414C0.143719 19.1364 0.359542 20.0716 0.719249 20.863C1.00701 21.7263 1.5106 22.4457 2.15807 23.0931C2.80555 23.7406 3.52496 24.2442 4.38825 24.532C5.17961 24.8197 6.11484 25.0356 7.48173 25.1075C8.84861 25.1794 9.28026 25.1794 12.6615 25.1794C16.1147 25.1794 16.5463 25.1794 17.8413 25.1075C19.2082 25.0356 20.0714 24.8197 20.9347 24.532C22.6613 23.8845 23.9563 22.5176 24.6038 20.863C24.8915 20.0716 25.1073 19.1364 25.1793 17.7695C25.2512 16.4026 25.2512 15.971 25.2512 12.5897C25.2512 9.20848 25.2512 8.77683 25.2512 7.40995ZM22.9491 17.6976C22.8772 18.9206 22.6613 19.568 22.5175 20.0716C22.0858 21.1507 21.2225 22.014 20.1434 22.4457C19.7117 22.5896 19.0643 22.8054 17.7693 22.8773C16.4024 22.9493 16.0427 22.9493 12.6615 22.9493C9.28026 22.9493 8.92055 22.9493 7.55367 22.8773C6.33067 22.8054 5.6832 22.5896 5.17961 22.4457C4.60408 22.2299 4.10049 21.9421 3.74078 21.5104C3.30913 21.0788 3.02137 20.5752 2.80555 20.0716C2.66166 19.64 2.44584 18.9925 2.3739 17.6976C2.30196 16.3307 2.30196 15.971 2.30196 12.5897C2.30196 9.20848 2.30196 8.84878 2.3739 7.48189C2.44584 6.25889 2.66166 5.61142 2.80555 5.10783C3.02137 4.5323 3.30913 4.02871 3.74078 3.669C4.17243 3.23736 4.67602 2.94959 5.17961 2.73377C5.61126 2.58989 6.25873 2.37406 7.55367 2.30212C8.92055 2.23018 9.28026 2.23018 12.6615 2.23018C16.0427 2.23018 16.4024 2.23018 17.7693 2.30212C18.9923 2.37406 19.6398 2.58989 20.1434 2.73377C20.7189 2.94959 21.2225 3.23736 21.5822 3.669C22.0139 4.10065 22.3016 4.60424 22.5175 5.10783C22.6613 5.53948 22.8772 6.18695 22.9491 7.48189C23.021 8.84878 23.021 9.20848 23.021 12.5897C23.021 15.971 23.021 16.4026 22.9491 17.6976Z" fill="url(#paint0_linear)"/>
<path d="M12.6617 6.11523C9.06466 6.11523 6.18701 8.99288 6.18701 12.5899C6.18701 16.187 9.06466 19.0647 12.6617 19.0647C16.2588 19.0647 19.1364 16.187 19.1364 12.5899C19.1364 9.06483 16.2588 6.11523 12.6617 6.11523ZM12.6617 16.8345C10.3596 16.8345 8.48913 14.964 8.48913 12.6619C8.48913 10.3598 10.3596 8.4893 12.6617 8.4893C14.9638 8.4893 16.8343 10.3598 16.8343 12.6619C16.9063 14.964 14.9638 16.8345 12.6617 16.8345Z" fill="url(#paint1_linear)"/>
<path d="M20.9346 5.89944C20.9346 6.76273 20.2871 7.41021 19.4239 7.41021C18.5606 7.41021 17.9131 6.76273 17.9131 5.89944C17.9131 5.03614 18.5606 4.38867 19.4239 4.38867C20.2152 4.38867 20.9346 5.03614 20.9346 5.89944Z" fill="url(#paint2_linear)"/>
<defs>
<linearGradient id="paint0_linear" x1="6.68368" y1="19.8914" x2="22.7246" y2="0.401792" gradientUnits="userSpaceOnUse">
<stop offset="0.0422005" stop-color="#FED578"/>
<stop offset="0.1923" stop-color="#F87B2A"/>
<stop offset="0.3099" stop-color="#ED5849"/>
<stop offset="0.4204" stop-color="#E43E5F"/>
<stop offset="0.4859" stop-color="#E13468"/>
<stop offset="0.4952" stop-color="#DE346B"/>
<stop offset="0.6461" stop-color="#B93791"/>
<stop offset="0.7854" stop-color="#9E39AC"/>
<stop offset="0.9078" stop-color="#8E3BBD"/>
<stop offset="1" stop-color="#883BC3"/>
</linearGradient>
<linearGradient id="paint1_linear" x1="6.18478" y1="12.6261" x2="19.1559" y2="12.6261" gradientUnits="userSpaceOnUse">
<stop offset="0.0422005" stop-color="#FED578"/>
<stop offset="0.1923" stop-color="#F87B2A"/>
<stop offset="0.3099" stop-color="#ED5849"/>
<stop offset="0.4204" stop-color="#E43E5F"/>
<stop offset="0.4859" stop-color="#E13468"/>
<stop offset="0.4952" stop-color="#DE346B"/>
<stop offset="0.6461" stop-color="#B93791"/>
<stop offset="0.7854" stop-color="#9E39AC"/>
<stop offset="0.9078" stop-color="#8E3BBD"/>
<stop offset="1" stop-color="#883BC3"/>
</linearGradient>
<linearGradient id="paint2_linear" x1="17.8979" y1="5.88412" x2="20.9262" y2="5.88412" gradientUnits="userSpaceOnUse">
<stop offset="0.0422005" stop-color="#FED578"/>
<stop offset="0.1923" stop-color="#F87B2A"/>
<stop offset="0.3099" stop-color="#ED5849"/>
<stop offset="0.4204" stop-color="#E43E5F"/>
<stop offset="0.4859" stop-color="#E13468"/>
<stop offset="0.4952" stop-color="#DE346B"/>
<stop offset="0.6461" stop-color="#B93791"/>
<stop offset="0.7854" stop-color="#9E39AC"/>
<stop offset="0.9078" stop-color="#8E3BBD"/>
<stop offset="1" stop-color="#883BC3"/>
</linearGradient>
</defs>
</svg>
