<svg width="18" height="18" viewBox="0 0 18 18" fill="none" xmlns="http://www.w3.org/2000/svg">
<path fill-rule="evenodd" clip-rule="evenodd" d="M9 5.25003C6.9 5.25003 5.25 6.90003 5.25 9.00003C5.25 11.1 6.9 12.75 9 12.75C11.1 12.75 12.75 11.1 12.75 9.00003C12.75 6.90003 11.1 5.25003 9 5.25003ZM9 1.5C4.875 1.5 1.5 4.875 1.5 9C1.5 13.125 4.875 16.5 9 16.5C13.125 16.5 16.5 13.125 16.5 9C16.5 4.875 13.125 1.5 9 1.5ZM9 15C5.7 15 3 12.3 3 9.00003C3 5.70003 5.7 3.00003 9 3.00003C12.3 3.00003 15 5.70003 15 9.00003C15 12.3 12.3 15 9 15Z" fill="#009688"/>
</svg>
