<svg width="29" height="21" viewBox="0 0 29 21" fill="none" xmlns="http://www.w3.org/2000/svg">
<path d="M14.1559 20.9737H15.8755C15.8755 20.9737 16.3989 20.8949 16.6979 20.5006C16.9222 20.1852 16.9222 19.5544 16.9222 19.5544C16.9222 19.5544 16.9222 16.5582 17.969 16.164C19.0157 15.7697 20.4363 19.0025 21.8569 20.2641C22.9784 21.2103 23.8008 20.9737 23.8008 20.9737L27.6887 20.8949C27.6887 20.8949 29.7074 20.7372 28.7354 18.6871C28.6606 18.5294 28.212 17.189 25.8195 14.4293C23.3522 11.5907 23.726 11.985 26.6419 7.01752C28.4363 4.02128 29.1092 2.12891 28.8849 1.34043C28.6606 0.55194 27.3896 0.788486 27.3896 0.788486H23.0531C23.0531 0.788486 22.7541 0.709637 22.455 0.946183C22.2307 1.10388 22.0812 1.57697 22.0812 1.57697C22.0812 1.57697 21.4083 3.94243 20.4363 5.91364C18.4923 10.0926 17.7447 10.3292 17.3708 10.0926C16.6232 9.46183 16.8475 7.64831 16.8475 6.30788C16.8475 2.20776 17.2961 0.55194 15.8755 0.0788486C15.5017 0.0788486 15.1278 0 13.9316 0C12.3615 0 11.0904 0 10.3428 0.473091C9.81938 0.788486 9.37078 1.49812 9.66985 1.49812C9.96892 1.57697 10.6418 1.73467 10.9409 2.28661C11.3895 3.07509 11.3895 4.80976 11.3895 4.80976C11.3895 4.80976 11.6138 9.61952 10.7914 10.1715C10.1932 10.5657 9.37078 9.77722 7.65115 5.91364C6.75394 4.02128 6.08104 1.89237 6.08104 1.89237C6.08104 1.89237 5.93151 1.49812 5.70721 1.26158C5.40814 1.02503 5.0343 0.946183 5.0343 0.946183H0.922125C0.922125 0.946183 0.32399 0.946183 0.0996892 1.34043C-0.124611 1.65582 0.0996892 2.28661 0.0996892 2.28661C0.0996892 2.28661 3.31467 11.985 7.05301 16.8736C10.3428 21.2891 14.1559 20.9737 14.1559 20.9737Z" fill="#4A76A8"/>
</svg>
